<svg width="13" height="14" viewBox="0 0 13 14" fill="none" xmlns="http://www.w3.org/2000/svg">
<path fill-rule="evenodd" clip-rule="evenodd" d="M6.10472 0C2.73319 0 0 3.00399 0 6.70958C0 10.4152 2.73318 13.4192 6.10472 13.4192C9.47629 13.4192 12.2094 10.4152 12.2094 6.70958C12.2094 3.00399 9.47619 0 6.10472 0ZM0.875683 6.70958C0.875683 3.53553 3.21681 0.962441 6.10472 0.962441C8.99263 0.962441 11.3337 3.53553 11.3337 6.70958C11.3337 9.88359 8.99263 12.4568 6.10472 12.4568C3.21681 12.4568 0.875683 9.88359 0.875683 6.70958ZM6.56552 3.67046C6.56552 3.3907 6.35918 3.16391 6.10464 3.16391C5.8501 3.16391 5.64375 3.3907 5.64375 3.67046V6.70976C5.64375 6.8441 5.69231 6.97295 5.77875 7.06795L7.62229 9.09415C7.80227 9.29194 8.09408 9.29194 8.27407 9.09415C8.45404 8.89633 8.45404 8.57559 8.27407 8.37778L6.56552 6.49994V3.67046Z" fill="white"/>
</svg>
