<svg width="200" height="203" viewBox="0 0 200 203" fill="none" xmlns="http://www.w3.org/2000/svg">
<g filter="url(#filter0_d_2_5713)">
<path fill-rule="evenodd" clip-rule="evenodd" d="M93.75 31.7188V12.6875H106.25V31.7188H93.75ZM128.963 37.8963L138.338 21.4148L149.163 27.7586L139.788 44.2401L128.963 37.8963ZM100 145.906C124.162 145.906 143.75 126.025 143.75 101.5C143.75 76.9751 124.162 57.0938 100 57.0938C75.8375 57.0938 56.25 76.9751 56.25 101.5C56.25 126.025 75.8375 145.906 100 145.906ZM100 158.594C131.066 158.594 156.25 133.032 156.25 101.5C156.25 69.968 131.066 44.4062 100 44.4062C68.934 44.4062 43.75 69.968 43.75 101.5C43.75 133.032 68.934 158.594 100 158.594ZM168.75 95.1562H187.5V107.844H168.75V95.1562ZM172.652 51.5999L156.414 61.1155L162.664 72.1032L178.902 62.5876L172.652 51.5999ZM50.8373 27.7586L60.2123 44.2401L71.0377 37.8963L61.6627 21.4148L50.8373 27.7586ZM37.3359 72.1032L21.0979 62.5876L27.3479 51.5999L43.5859 61.1155L37.3359 72.1032ZM93.75 171.281V190.312H106.25V171.281H93.75ZM31.25 95.1562H12.5V107.844H31.25V95.1562ZM21.0976 140.412L37.3356 130.897L43.5856 141.884L27.3476 151.4L21.0976 140.412ZM60.2127 158.761L50.8377 175.243L61.663 181.586L71.038 165.105L60.2127 158.761ZM138.337 181.586L128.962 165.105L139.788 158.761L149.163 175.243L138.337 181.586ZM156.414 141.884L172.652 151.4L178.902 140.412L162.664 130.897L156.414 141.884Z" fill="#C2A022"/>
</g>
<defs>
<filter id="filter0_d_2_5713" x="-4" y="0" width="208" height="211" filterUnits="userSpaceOnUse" color-interpolation-filters="sRGB">
<feFlood flood-opacity="0" result="BackgroundImageFix"/>
<feColorMatrix in="SourceAlpha" type="matrix" values="0 0 0 0 0 0 0 0 0 0 0 0 0 0 0 0 0 0 127 0" result="hardAlpha"/>
<feOffset dy="4"/>
<feGaussianBlur stdDeviation="2"/>
<feComposite in2="hardAlpha" operator="out"/>
<feColorMatrix type="matrix" values="0 0 0 0 0 0 0 0 0 0 0 0 0 0 0 0 0 0 0.25 0"/>
<feBlend mode="normal" in2="BackgroundImageFix" result="effect1_dropShadow_2_5713"/>
<feBlend mode="normal" in="SourceGraphic" in2="effect1_dropShadow_2_5713" result="shape"/>
</filter>
</defs>
</svg>
