<svg width="16" height="29" viewBox="0 0 16 29" fill="none" xmlns="http://www.w3.org/2000/svg">
<path d="M6.59024 0C4.66001 0 3.08981 1.57021 3.08981 3.50044V16.4589C0.941513 17.8058 -0.249029 20.2801 0.0439019 22.8306C0.388382 25.8327 2.81979 28.2572 5.82478 28.5959C6.08498 28.6246 6.34395 28.6393 6.60047 28.6393C8.2255 28.6393 9.75889 28.0575 10.983 26.9635C11.6744 26.3446 12.2276 25.5869 12.6064 24.7397C12.9853 23.8926 13.1813 22.9751 13.1816 22.0471C13.1816 19.7785 12.0033 17.6593 10.0903 16.4593V3.50044C10.0903 1.57021 8.52007 0 6.59024 0ZM12.3629 22.0471C12.3629 23.6897 11.6613 25.2595 10.4376 26.3535C9.19675 27.4631 7.59095 27.9736 5.91642 27.7822C3.28618 27.4868 1.15835 25.3647 0.856825 22.7369C0.591715 20.4307 1.70902 18.1969 3.70349 17.0448C3.76568 17.0089 3.81733 16.9572 3.85323 16.8951C3.88914 16.8329 3.90805 16.7623 3.90805 16.6905V3.50044C3.90805 2.02106 5.11086 0.818242 6.59024 0.818242C8.06963 0.818242 9.27203 2.02106 9.27203 3.50044V16.6905C9.27203 16.7623 9.29094 16.8329 9.32685 16.8951C9.36275 16.9572 9.4144 17.0089 9.47659 17.0448C10.3533 17.5532 11.0813 18.2827 11.5879 19.1605C12.0945 20.0383 12.3614 21.0336 12.3629 22.0471Z" fill="white"/>
<path d="M6.99928 18.5728V5.70804H6.18104V18.5728C4.44309 18.7762 3.08972 20.2556 3.08972 22.0471C3.08972 23.9769 4.65993 25.5471 6.59016 25.5471C8.52039 25.5471 10.0902 23.9769 10.0902 22.0471C10.0902 20.2552 8.73682 18.7762 6.99928 18.5728ZM6.59016 24.7289C5.11119 24.7289 3.90796 23.5261 3.90796 22.0471C3.90796 20.5681 5.11078 19.3649 6.59016 19.3649C8.06954 19.3649 9.27195 20.5677 9.27195 22.0471C9.27195 23.5265 8.06913 24.7289 6.59016 24.7289ZM13.1361 2.04559H15.9999V2.86383H13.1361V2.04559ZM13.9543 4.90944H15.9999V5.72768H13.9543V4.90944ZM13.1361 7.77329H15.9999V8.59153H13.1361V7.77329ZM13.9543 10.6371H15.9999V11.4554H13.9543V10.6371ZM13.1361 13.501H15.9999V14.3192H13.1361V13.501ZM13.9543 16.3648H15.9999V17.1831H13.9543V16.3648Z" fill="white"/>
</svg>
